<?xml version="1.0" encoding="UTF-8"?>
<svg xmlns="http://www.w3.org/2000/svg" width="1747.53" height="800" viewBox="0 0 1747.53 800">
  <defs>
    <style>
      .cls-1 {
        fill: #010101;
      }

      .cls-1, .cls-2 {
        stroke-width: 0px;
      }

      .cls-2 {
        fill: #231f20;
      }
    </style>
  </defs>
  <g id="Layer_1" data-name="Layer 1">
    <g id="Layer_2" data-name="Layer 2">
      <path class="cls-1" d="m63.87,796.46c-2.83-8.54-5.65-17.07-8.47-25.61-6.13-18.55-12.47-37.73-18.76-56.58C17.4,656.6,1.37,604.27.11,547.93c-1.24-55.57,7.83-108.94,26.95-158.65,18.73-48.69,47.65-95.25,85.95-138.37,3.61-4.06,7.53-7.94,11.32-11.69,1-.99,2-1.98,3-2.98-3.5-6.27-5.7-11.13-4.17-15.93,1.73-5.44,7.73-8.74,16.69-13.15,8.61-4.24,17.69-7.78,26.46-11.2,10.48-4.09,21.31-8.31,31.06-13.66,20.97-11.49,37.3-22.9,49.92-34.88,3.21-3.04,6.41-6.21,9.51-9.27,14.63-14.44,29.76-29.37,50.86-37.69,10.9-4.3,21.79-8.6,32.69-12.91,48.02-18.98,97.68-38.6,146.79-57.32,1.63-.62,3.39-.92,5.39-.92,3.52,0,7.13.93,10.95,1.92,1.48.38,2.99.77,4.5,1.1,5.81-7.52,9.18-11.3,14.6-11.3,3.56,0,6.8,1.8,11.42,5.14,2.96-6.28,7.1-12.42,14.1-12.42,3.89,0,7.71,1.95,11.75,6.07,3.74-6.27,8.16-11.26,14.38-11.26,4.93,0,8.97,3.24,12.13,7.03,3.85-5.27,8.35-9.75,14.36-9.75,3.96,0,7.75,2,11.47,6.09.61-.74,1.17-1.43,1.71-2.13,4.89-6.32,11.42-9.81,18.39-9.81s13.69,3.46,18.94,9.73c2.88,3.44,7.95,6.49,9.68,6.65,2.55-.81,5.07-1.23,7.51-1.23,6.78,0,11.94,3.12,16.48,5.88,1.74,1.05,3.38,2.05,5.09,2.88,22,10.7,44.58,21.24,66.42,31.43,5.09,2.38,10.19,4.75,15.28,7.13,3.74,1.75,7.68,3.4,12.24,5.32,2.42,1.01,5.04,2.11,7.95,3.36l8.11,3.47-7.54,4.51c-21.22,12.69-22.18,28.93-21.22,50.49,1.01,22.6-7.06,43.74-22.72,59.52-15.79,15.91-38.31,25.04-61.8,25.04h0c-8.53,0-17.15-1.17-25.63-3.48-13.02-3.55-24.89-10.53-36.38-17.28-3.2-1.88-6.5-3.82-9.73-5.63-5.04-2.82-9.78-6.12-14.36-9.32-6.56-4.58-12.76-8.9-19.61-11.79-6.11-2.57-12.53-3.88-19.09-3.88-15.6,0-30.32,7.26-40.39,19.91-2.58,3.24-4.93,6.83-7.21,10.3-1.1,1.67-2.19,3.34-3.3,4.97l-2.03,2.97-3.47-1.2c-16.37-5.66-29.97-8.41-41.6-8.41-25.04,0-43.71,13-62.43,43.48l-1.78,2.89-3.38-.81c-1.44-.34-2.91-.69-4.41-1.03-3.33-.77-6.78-1.57-10.21-2.48-7.84-2.07-15.44-3.12-22.6-3.12-15.27,0-28.23,4.77-37.49,13.79-10.22,9.96-15.53,24.67-15.35,42.53.09,9.32,2.74,18.63,5.54,28.49,1.68,5.91,3.41,12.02,4.56,18.16.3,1.58,1.2,3.53,2.15,5.59,2.7,5.83,7.21,15.58-4.41,22.15-6.05,3.42-13.58,7.67-21.85,7.67-6.19,0-11.88-2.42-16.96-7.21-100.34,49.54-163.97,130.68-194.46,247.96-11.55,44.44-9.01,91.25-6.55,136.52l2.87,52.72-12.13,1.35-1.17-3.54ZM667.17,57.69c-14.96,0-28.49,6.5-37.11,17.85-15.1,19.86-16.17,42.37-3.18,66.91,11.86,22.41,30.58,35.87,51.37,36.97,25.77-.11,42.95-10.2,51.06-29.97,6.8-16.59,5.5-36.12-3.58-53.58-9.44-18.16-25.75-31.41-44.74-36.36-4.59-1.2-9.24-1.8-13.83-1.8Z"/>
      <path class="cls-1" d="m68.34,795.08c-9.07-27.4-18.1-54.82-27.24-82.2-17.97-53.86-35.03-107.85-36.3-165.05-2.49-111.59,36.33-209.02,111.78-293.98,5.16-5.81,10.89-11.15,16.52-16.88-8.65-15.2-8.87-17.05,8.88-25.79,18.74-9.23,39.49-14.98,57.71-24.96,18.19-9.97,36.13-21.58,50.89-35.59,18.19-17.27,34.29-36.3,58.86-45.99,59.74-23.56,119.4-47.32,179.42-70.21,5.37-2.05,13.18,1.65,21.11,2.88q11.45-14.94,25.99-3.95c4.8-11.66,10.72-24.35,24.73-5.36,6.62-13.01,13.68-23.7,25.76-4.29,7.38-11.29,14.41-21.15,25.6-4.41,2.38-2.88,4.06-4.8,5.61-6.8,8.44-10.91,21.16-10.41,29.93.06,3.42,4.08,11.04,9.34,14.58,8.17,11.35-3.74,17.55,3.23,25.72,7.2,27.09,13.17,54.46,25.82,81.77,38.59,5.8,2.71,11.78,5.08,20.33,8.74-23.53,14.07-24.4,32.8-23.43,54.53,2.4,53.85-49.2,91.51-104.2,76.53-15.98-4.35-30.4-14.29-45.03-22.47-11.82-6.61-22.08-16.13-34.45-21.34-23.38-9.85-49.61-2.02-65.07,17.42-3.94,4.96-7.2,10.41-10.7,15.54-52.73-18.24-81.63-8.57-109.64,37.02-4.65-1.11-9.61-2.19-14.51-3.48-47.08-12.44-81.82,11.28-81.36,57.6.16,15.82,7.2,31.51,10.17,47.41,1.42,7.6,11.08,16.76-.02,23.03-10.73,6.06-23.23,12.78-35.41-1.21-110.56,53.46-171.33,141.99-200.04,252.44-11.94,45.94-9.1,93.4-6.55,140.43.83,15.3,1.67,30.61,2.5,45.91-1.31.15-2.62.29-3.93.44Zm36.8-286.17c-32.5,54.72-46.12,113.65-43.6,178.44,2.93-27.13,2.52-52.75,9.03-76.68,9.3-34.19,23.67-67.14,35.88-100.62,13.11-19.8,26.22-39.6,39.33-59.41-1.29-.72-2.59-1.44-3.88-2.16-12.25,20.15-24.51,40.29-36.76,60.44ZM678.14,183.94c28.94-.09,47.06-12.17,55.53-32.83,15.58-38.01-9.66-85.09-51.45-95.98-21.36-5.57-43.1.85-55.93,17.74-17.42,22.92-16.37,47.47-3.58,71.64,12.58,23.76,32.61,38.29,55.43,39.43ZM157.58,434.47c-.25-.16-.49-.33-.74-.49,13.88-12.86,27.76-25.73,41.64-38.59-.08-.08-.17-.16-.25-.24-13.55,13.11-27.1,26.22-40.66,39.32Z"/>
    </g>
  </g>
  <g id="Layer_2-2" data-name="Layer 2">
    <path class="cls-2" d="m525.27,437.36v190.04h-79.3v-266.6h103.32c45.31,0,80.79,10.29,106.45,30.86,30.47,24.61,45.7,58.01,45.7,100.2s-13.02,73.31-39.06,98.83c-26.04,25.52-59.57,38.28-100.59,38.28-4.82,0-12.7-.26-23.63-.78v-78.32h12.7c46.22,0,69.34-19.34,69.34-58.01,0-36.33-22.72-54.49-68.16-54.49h-26.76Z"/>
    <path class="cls-2" d="m733.27,435.41h73.05v109.96c0,11.07,4.62,16.6,13.87,16.6s13.67-5.53,13.67-16.6v-109.96h73.05v108.59c0,25.26-8.4,46.58-25.2,63.96s-37.37,26.07-61.72,26.07c-27.73,0-50.07-10.09-66.99-30.27-13.15-15.75-19.73-37.63-19.73-65.62v-102.73Z"/>
    <path class="cls-2" d="m1071.55,435.41v76.95c-10.29,0-17.35,1.92-21.19,5.76s-6.28,11.43-7.32,22.75c-3.39,37.63-17.97,64.19-43.75,79.69-13.67,8.07-33.08,12.11-58.2,12.11h-10.16v-77.34h3.32c11.72,0,20.08-2.44,25.1-7.32,5.01-4.88,7.91-13.44,8.69-25.68,1.04-19.92,2.9-33.92,5.57-41.99,2.67-8.07,8.11-16.08,16.31-24.02,14.32-13.93,34.18-20.9,59.57-20.9h22.07Z"/>
    <path class="cls-2" d="m1168.43,360.8v266.6h-73.05v-266.6h73.05Zm111.91,71.88l-35.74,70.9,53.12,123.83h-80.86l-45.7-127.15,33.2-67.58h75.98Z"/>
    <path class="cls-2" d="m1384.05,432.67v194.73h-73.05v-194.73h73.05Zm-36.33-86.91c9.89,0,18.46,3.49,25.68,10.45,7.23,6.97,10.84,15.2,10.84,24.71,0,10.16-3.42,18.49-10.25,25-6.84,6.51-15.59,9.77-26.27,9.77s-19.43-3.25-26.27-9.77c-6.84-6.51-10.25-14.84-10.25-25,0-9.5,3.61-17.74,10.84-24.71,7.23-6.96,15.79-10.45,25.68-10.45Z"/>
    <path class="cls-2" d="m1533.86,430.72v78.12c-5.08-2.86-9.7-4.3-13.87-4.3-13.28,0-19.92,10.16-19.92,30.47v92.38h-73.05v-106.45c0-28.12,7.68-50.55,23.05-67.29,15.36-16.73,35.87-25.1,61.52-25.1,5.73,0,13.15.72,22.27,2.15Z"/>
    <path class="cls-2" d="m1746.75,541.85h-110.74c-1.69-5.6-2.54-10.74-2.54-15.43,0-6.51,1.17-12.89,3.52-19.14h37.11c-2.61-14.45-10.74-21.68-24.41-21.68-9.12,0-16.54,3.88-22.27,11.62-5.73,7.75-8.59,17.68-8.59,29.79s2.76,22.85,8.3,30.66c5.53,7.81,12.79,11.72,21.78,11.72,7.29,0,14.32-3.64,21.09-10.94l41.6,50c-19.4,15.23-40.95,22.85-64.65,22.85-28.91,0-53.19-9.7-72.85-29.1-19.66-19.4-29.49-43.42-29.49-72.07s9.93-52.6,29.79-72.27c19.85-19.66,44.24-29.49,73.14-29.49s51.98,9.6,71.19,28.81c19.21,19.21,28.81,42.87,28.81,71,0,2.87-.26,7.42-.78,13.67Z"/>
  </g>
</svg>